{
  "accessors": [
    {
      "bufferView": 2,
      "componentType": 5126,
      "count": 4588,
      "max": [
        1.114300012588501,
        1.2220120429992676,
        2.012765884399414
      ],
      "min": [
        -1.114300012588501,
        -1.3280969858169556,
        -1.101004958152771
      ],
      "type": "VEC3"
    },
    {
      "bufferView": 2,
      "byteOffset": 55056,
      "componentType": 5126,
      "count": 4588,
      "max": [
        0.9998424649238586,
        1.0,
        1.0
      ],
      "min": [
        -0.9997352361679077,
        -1.0,
        -1.0
      ],
      "type": "VEC3"
    },
    {
      "bufferView": 3,
      "componentType": 5126,
      "count": 4588,
      "max": [
        0.9993706345558167,
        0.9999758005142212,
        0.997898519039154,
        1.0
      ],
      "min": [
        -0.999992311000824,
        -0.9999757409095764,
        -0.9969692230224609,
        1.0
      ],
      "type": "VEC4"
    },
    {
      "bufferView": 1,
      "componentType": 5126,
      "count": 4588,
      "max": [
        0.994193971157074,
        0.9959840178489685
      ],
      "min": [
        0.005187999922782183,
        0.011481000110507011
      ],
      "type": "VEC2"
    },
    {
      "bufferView": 0,
      "componentType": 5125,
      "count": 24474,
      "type": "SCALAR"
    },
    {
      "bufferView": 2,
      "byteOffset": 110112,
      "componentType": 5126,
      "count": 5842,
      "max": [
        1.114300012588501,
        1.0163849592208862,
        1.253082036972046
      ],
      "min": [
        -1.114300012588501,
        -1.2122160196304321,
        -1.101004958152771
      ],
      "type": "VEC3"
    },
    {
      "bufferView": 2,
      "byteOffset": 180216,
      "componentType": 5126,
      "count": 5842,
      "max": [
        1.0,
        1.0,
        0.9995456337928772
      ],
      "min": [
        -1.0,
        -1.0,
        -0.9984068870544434
      ],
      "type": "VEC3"
    },
    {
      "bufferView": 3,
      "byteOffset": 73408,
      "componentType": 5126,
      "count": 5842,
      "max": [
        1.0,
        1.0,
        0.9990741014480591,
        1.0
      ],
      "min": [
        -1.0,
        -0.9810538291931152,
        -0.9431175589561462,
        -1.0
      ],
      "type": "VEC4"
    },
    {
      "bufferView": 1,
      "byteOffset": 36704,
      "componentType": 5126,
      "count": 5842,
      "max": [
        0.9932309985160828,
        0.26826199889183044
      ],
      "min": [
        0.0040699997916817665,
        0.013407999649643898
      ],
      "type": "VEC2"
    },
    {
      "bufferView": 0,
      "byteOffset": 97896,
      "componentType": 5125,
      "count": 9342,
      "type": "SCALAR"
    }
  ],
  "asset": {
    "extras": {
      "author": "Suushimi (https://sketchfab.com/Suushimi)",
      "license": "CC-BY-NC-4.0 (http://creativecommons.org/licenses/by-nc/4.0/)",
      "source": "https://sketchfab.com/3d-models/cat-70a23788ef984a7a9a1c9a9fe6d5a651",
      "title": "Cat"
    },
    "generator": "Sketchfab-12.66.0",
    "version": "2.0"
  },
  "bufferViews": [
    {
      "buffer": 0,
      "byteLength": 135264,
      "name": "floatBufferViews",
      "target": 34963
    },
    {
      "buffer": 0,
      "byteLength": 83440,
      "byteOffset": 135264,
      "byteStride": 8,
      "name": "floatBufferViews",
      "target": 34962
    },
    {
      "buffer": 0,
      "byteLength": 250320,
      "byteOffset": 218704,
      "byteStride": 12,
      "name": "floatBufferViews",
      "target": 34962
    },
    {
      "buffer": 0,
      "byteLength": 166880,
      "byteOffset": 469024,
      "byteStride": 16,
      "name": "floatBufferViews",
      "target": 34962
    }
  ],
  "buffers": [
    {
      "byteLength": 635904,
      "uri": "scene.bin"
    }
  ],
  "images": [
    {
      "uri": "textures/lambert2SG_baseColor.png"
    },
    {
      "uri": "textures/lambert2SG_metallicRoughness.png"
    },
    {
      "uri": "textures/lambert2SG_normal.png"
    }
  ],
  "materials": [
    {
      "doubleSided": true,
      "name": "lambert2SG",
      "normalTexture": {
        "index": 2
      },
      "pbrMetallicRoughness": {
        "baseColorTexture": {
          "index": 0
        },
        "metallicFactor": 0.0,
        "metallicRoughnessTexture": {
          "index": 1
        }
      }
    }
  ],
  "meshes": [
    {
      "name": "Object_0",
      "primitives": [
        {
          "attributes": {
            "NORMAL": 1,
            "POSITION": 0,
            "TANGENT": 2,
            "TEXCOORD_0": 3
          },
          "indices": 4,
          "material": 0,
          "mode": 4
        }
      ]
    },
    {
      "name": "Object_1",
      "primitives": [
        {
          "attributes": {
            "NORMAL": 6,
            "POSITION": 5,
            "TANGENT": 7,
            "TEXCOORD_0": 8
          },
          "indices": 9,
          "material": 0,
          "mode": 4
        }
      ]
    }
  ],
  "nodes": [
    {
      "children": [
        1
      ],
      "matrix": [
        1.0,
        0.0,
        0.0,
        0.0,
        0.0,
        2.220446049250313e-16,
        -1.0,
        0.0,
        0.0,
        1.0,
        2.220446049250313e-16,
        0.0,
        0.0,
        0.0,
        0.0,
        1.0
      ],
      "name": "Sketchfab_model"
    },
    {
      "children": [
        2,
        3
      ],
      "name": "Cat_LP3.obj.cleaner.materialmerger.gles"
    },
    {
      "mesh": 0,
      "name": "Object_2"
    },
    {
      "mesh": 1,
      "name": "Object_3"
    }
  ],
  "samplers": [
    {
      "magFilter": 9729,
      "minFilter": 9987,
      "wrapS": 10497,
      "wrapT": 10497
    }
  ],
  "scene": 0,
  "scenes": [
    {
      "name": "Sketchfab_Scene",
      "nodes": [
        0
      ]
    }
  ],
  "textures": [
    {
      "sampler": 0,
      "source": 0
    },
    {
      "sampler": 0,
      "source": 1
    },
    {
      "sampler": 0,
      "source": 2
    }
  ]
}
